<svg width="17" height="15" viewBox="0 0 17 15" fill="none" xmlns="http://www.w3.org/2000/svg">
<path fill-rule="evenodd" clip-rule="evenodd" d="M16.0033 1.82903C16.5046 2.40294 16.6673 3.70999 16.6673 3.70999C16.6673 3.70999 16.8334 5.2466 16.8334 6.7795V8.21614C16.8334 9.75275 16.6673 11.2857 16.6673 11.2857C16.6673 11.2857 16.5046 12.5927 16.0033 13.1666C15.4313 13.8473 14.7985 13.9176 14.4408 13.9573C14.4015 13.9617 14.3656 13.9657 14.3334 13.9701C12.0026 14.1589 8.50002 14.1663 8.50002 14.1663C8.50002 14.1663 4.16734 14.1219 2.8327 13.9775C2.76779 13.9633 2.68873 13.9523 2.59906 13.9399C2.17614 13.8812 1.51724 13.7898 0.99351 13.1666C0.495463 12.5927 0.332703 11.2857 0.332703 11.2857C0.332703 11.2857 0.166687 9.74905 0.166687 8.21614V6.7795C0.166687 5.2466 0.335958 3.70999 0.335958 3.70999C0.335958 3.70999 0.495463 2.40294 0.996765 1.82903C1.56874 1.1484 2.20151 1.07807 2.55926 1.0383C2.59853 1.03394 2.63449 1.02994 2.66669 1.02555C4.99742 0.833008 8.49676 0.833008 8.49676 0.833008H8.50328C8.50328 0.833008 12.0026 0.833008 14.3334 1.02555C14.3656 1.02994 14.4015 1.03394 14.4408 1.0383C14.7985 1.07807 15.4313 1.1484 16.0033 1.82903ZM6.41669 9.70907V5.29594C6.41669 4.98695 6.74121 4.78546 7.01815 4.9225L11.4927 7.13673C11.8024 7.28995 11.8018 7.73176 11.4917 7.88412L7.01712 10.083C6.74026 10.2191 6.41669 10.0176 6.41669 9.70907Z" fill="white"/>
</svg>
