<svg width="150" height="50" viewBox="0 0 150 50" fill="none" xmlns="http://www.w3.org/2000/svg">
<path d="M0 10C0 4.47715 4.47715 0 10 0H140C145.523 0 150 4.47715 150 10V40C150 45.5228 145.523 50 140 50H10C4.47715 50 0 45.5228 0 40V10Z" fill="black"/>
<path d="M30.9611 25.3764C30.9745 24.333 31.2517 23.3101 31.7667 22.4026C32.2817 21.4952 33.0179 20.7328 33.9068 20.1863C33.3421 19.3799 32.5972 18.7162 31.7311 18.248C30.8651 17.7798 29.9018 17.52 28.9178 17.4892C26.8188 17.2689 24.7838 18.7452 23.7142 18.7452C22.6239 18.7452 20.977 17.5111 19.2036 17.5476C18.0565 17.5846 16.9386 17.9182 15.9587 18.5158C14.9789 19.1133 14.1705 19.9545 13.6124 20.9574C11.1949 25.1429 12.9982 31.2942 15.3139 34.6775C16.4726 36.3341 17.8267 38.1847 19.5985 38.1191C21.3323 38.0472 21.9798 37.0135 24.0727 37.0135C26.1462 37.0135 26.7537 38.1191 28.5615 38.0773C30.4219 38.0471 31.5941 36.4133 32.7121 34.7409C33.5446 33.5605 34.1852 32.2558 34.6101 30.8753C33.5293 30.4181 32.6069 29.6529 31.9579 28.6751C31.309 27.6972 30.9623 26.5499 30.9611 25.3764Z" fill="white"/>
<path d="M27.5466 15.2646C28.561 14.0469 29.0607 12.4817 28.9397 10.9014C27.3899 11.0641 25.9583 11.8048 24.9302 12.9759C24.4276 13.548 24.0426 14.2135 23.7972 14.9345C23.5519 15.6554 23.4511 16.4177 23.5006 17.1776C24.2758 17.1856 25.0426 17.0176 25.7435 16.6862C26.4443 16.3548 27.0608 15.8688 27.5466 15.2646Z" fill="white"/>
<path d="M52.263 33.2015H46.7158L45.3836 37.135H43.034L48.2883 22.582H50.7294L55.9837 37.135H53.594L52.263 33.2015ZM47.2903 31.3864H51.6874L49.5198 25.0026H49.4591L47.2903 31.3864Z" fill="white"/>
<path d="M67.3311 31.8308C67.3311 35.128 65.5663 37.2464 62.9031 37.2464C62.2285 37.2817 61.5576 37.1263 60.9672 36.798C60.3767 36.4697 59.8907 35.9818 59.5647 35.3901H59.5143V40.6454H57.3364V26.5251H59.4446V28.2898H59.4846C59.8256 27.701 60.3198 27.2156 60.9147 26.8853C61.5096 26.555 62.183 26.3921 62.8631 26.4141C65.556 26.4141 67.3311 28.5428 67.3311 31.8308ZM65.0925 31.8308C65.0925 29.6827 63.9824 28.2704 62.2885 28.2704C60.6245 28.2704 59.5052 29.7124 59.5052 31.8308C59.5052 33.9687 60.6245 35.4004 62.2885 35.4004C63.9824 35.4004 65.0925 33.9984 65.0925 31.8308Z" fill="white"/>
<path d="M79.0092 31.8308C79.0092 35.128 77.2444 37.2464 74.5813 37.2464C73.9066 37.2817 73.2357 37.1263 72.6453 36.798C72.0549 36.4697 71.5689 35.9817 71.2429 35.3901H71.1925V40.6454H69.0145V26.5251H71.1226V28.2898H71.1627C71.5037 27.701 71.9979 27.2156 72.5928 26.8853C73.1877 26.555 73.8611 26.3921 74.5412 26.4141C77.2341 26.4141 79.0092 28.5428 79.0092 31.8308ZM76.7706 31.8308C76.7706 29.6827 75.6605 28.2704 73.9667 28.2704C72.3026 28.2704 71.1833 29.7124 71.1833 31.8308C71.1833 33.9687 72.3026 35.4004 73.9667 35.4004C75.6605 35.4004 76.7706 33.9984 76.7706 31.8308H76.7706Z" fill="white"/>
<path d="M86.7275 33.0807C86.8888 34.5239 88.2908 35.4714 90.2066 35.4714C92.0424 35.4714 93.3631 34.5238 93.3631 33.2225C93.3631 32.093 92.5665 31.4166 90.6805 30.9531L88.7944 30.4987C86.1221 29.8532 84.8815 28.6035 84.8815 26.5755C84.8815 24.0645 87.0697 22.3398 90.1769 22.3398C93.252 22.3398 95.3602 24.0645 95.4311 26.5755H93.2326C93.101 25.1232 91.9004 24.2465 90.146 24.2465C88.3915 24.2465 87.191 25.1335 87.191 26.4244C87.191 27.4533 87.9578 28.0587 89.8335 28.5222L91.4369 28.9159C94.4228 29.622 95.6634 30.8214 95.6634 32.9501C95.6634 35.6728 93.4947 37.378 90.0452 37.378C86.8178 37.378 84.6388 35.7128 84.498 33.0806L86.7275 33.0807Z" fill="white"/>
<path d="M100.364 24.0146V26.5256H102.381V28.2503H100.364V34.0997C100.364 35.0084 100.768 35.4318 101.655 35.4318C101.894 35.4276 102.133 35.4108 102.371 35.3814V37.0958C101.972 37.1703 101.567 37.2041 101.161 37.1965C99.0133 37.1965 98.1755 36.3897 98.1755 34.3319V28.2503H96.6328V26.5256H98.1755V24.0146H100.364Z" fill="white"/>
<path d="M103.55 31.8307C103.55 28.4923 105.516 26.3945 108.582 26.3945C111.658 26.3945 113.616 28.4923 113.616 31.8307C113.616 35.1783 111.669 37.2669 108.582 37.2669C105.497 37.2669 103.55 35.1783 103.55 31.8307ZM111.396 31.8307C111.396 29.5407 110.347 28.189 108.582 28.189C106.817 28.189 105.769 29.551 105.769 31.8307C105.769 34.1299 106.817 35.4713 108.582 35.4713C110.347 35.4713 111.396 34.1299 111.396 31.8307H111.396Z" fill="white"/>
<path d="M115.411 26.525H117.488V28.3309H117.539C117.679 27.7669 118.01 27.2684 118.475 26.9193C118.939 26.5702 119.51 26.3918 120.091 26.414C120.342 26.4131 120.592 26.4403 120.837 26.4952V28.5324C120.52 28.4355 120.19 28.3911 119.859 28.4007C119.542 28.3879 119.227 28.4437 118.934 28.5643C118.641 28.6848 118.378 28.8674 118.162 29.0993C117.947 29.3312 117.784 29.607 117.685 29.9078C117.586 30.2086 117.553 30.5273 117.589 30.8419V37.1353H115.411L115.411 26.525Z" fill="white"/>
<path d="M130.879 34.0189C130.586 35.9451 128.71 37.2669 126.31 37.2669C123.223 37.2669 121.307 35.1989 121.307 31.8811C121.307 28.553 123.234 26.3945 126.218 26.3945C129.154 26.3945 131 28.4111 131 31.6282V32.3743H123.506V32.506C123.471 32.8964 123.52 33.2898 123.649 33.66C123.779 34.0301 123.985 34.3685 124.255 34.6528C124.525 34.937 124.852 35.1606 125.215 35.3086C125.578 35.4566 125.969 35.5257 126.36 35.5113C126.875 35.5595 127.391 35.4403 127.833 35.1714C128.274 34.9026 128.617 34.4983 128.811 34.0189L130.879 34.0189ZM123.516 30.8522H128.821C128.84 30.5011 128.787 30.1497 128.665 29.8202C128.542 29.4906 128.352 29.19 128.108 28.9371C127.864 28.6843 127.57 28.4846 127.244 28.3508C126.919 28.2169 126.57 28.1517 126.218 28.1593C125.864 28.1572 125.512 28.2253 125.184 28.3598C124.856 28.4943 124.557 28.6924 124.306 28.9428C124.055 29.1931 123.856 29.4908 123.72 29.8185C123.585 30.1462 123.515 30.4976 123.516 30.8522V30.8522Z" fill="white"/>
<path d="M47.2827 9.66471C47.7697 9.62976 48.2584 9.70334 48.7136 9.88013C49.1687 10.0569 49.579 10.3325 49.9147 10.6871C50.2504 11.0416 50.5033 11.4662 50.655 11.9303C50.8068 12.3944 50.8536 12.8864 50.7922 13.3708C50.7922 15.7536 49.5044 17.1232 47.2827 17.1232H44.5886V9.66471H47.2827ZM45.7471 16.0684H47.1533C47.5013 16.0892 47.8496 16.0322 48.1728 15.9014C48.4959 15.7707 48.7859 15.5695 49.0215 15.3125C49.2571 15.0556 49.4325 14.7493 49.5348 14.416C49.6371 14.0827 49.6639 13.7309 49.613 13.386C49.6602 13.0424 49.6307 12.6927 49.5268 12.3619C49.4229 12.031 49.2471 11.7273 49.0121 11.4724C48.777 11.2175 48.4884 11.0177 48.1671 10.8874C47.8457 10.7571 47.4995 10.6995 47.1533 10.7187H45.7471V16.0684Z" fill="white"/>
<path d="M52.1008 14.3062C52.0654 13.9363 52.1078 13.5631 52.2251 13.2105C52.3424 12.8579 52.5321 12.5338 52.782 12.2588C53.0319 11.9838 53.3366 11.7641 53.6764 11.6137C54.0162 11.4634 54.3837 11.3857 54.7552 11.3857C55.1268 11.3857 55.4943 11.4634 55.8341 11.6137C56.1739 11.7641 56.4786 11.9838 56.7285 12.2588C56.9784 12.5338 57.1681 12.8579 57.2854 13.2105C57.4027 13.5631 57.4451 13.9363 57.4097 14.3062C57.4457 14.6765 57.4039 15.0502 57.2869 15.4034C57.1699 15.7565 56.9804 16.0813 56.7304 16.3568C56.4804 16.6323 56.1755 16.8525 55.8353 17.0032C55.4952 17.1538 55.1273 17.2317 54.7552 17.2317C54.3832 17.2317 54.0153 17.1538 53.6752 17.0032C53.335 16.8525 53.0301 16.6323 52.7801 16.3568C52.5301 16.0813 52.3406 15.7565 52.2236 15.4034C52.1066 15.0502 52.0648 14.6765 52.1008 14.3062ZM56.2671 14.3062C56.2671 13.0861 55.719 12.3726 54.7571 12.3726C53.7915 12.3726 53.2483 13.0861 53.2483 14.3062C53.2483 15.5361 53.7915 16.2441 54.7571 16.2441C55.719 16.2441 56.2671 15.5312 56.2671 14.3062H56.2671Z" fill="white"/>
<path d="M64.4666 17.1228H63.3142L62.1509 12.9773H62.063L60.9046 17.1228H59.7632L58.2117 11.4941H59.3384L60.3467 15.7891H60.4297L61.5869 11.4941H62.6526L63.8098 15.7891H63.8977L64.9011 11.4941H66.012L64.4666 17.1228Z" fill="white"/>
<path d="M67.3169 11.4941H68.3862V12.3882H68.4692C68.6101 12.0671 68.8476 11.7979 69.1487 11.6181C69.4497 11.4384 69.7994 11.357 70.1489 11.3854C70.4228 11.3648 70.6978 11.4061 70.9536 11.5062C71.2093 11.6064 71.4392 11.7627 71.6264 11.9638C71.8135 12.1649 71.9529 12.4054 72.0344 12.6677C72.1159 12.93 72.1374 13.2072 72.0972 13.4789V17.1227H70.9863V13.7579C70.9863 12.8533 70.5933 12.4035 69.7717 12.4035C69.5858 12.3948 69.4002 12.4265 69.2276 12.4963C69.055 12.5661 68.8996 12.6723 68.7719 12.8078C68.6443 12.9433 68.5474 13.1048 68.488 13.2812C68.4286 13.4576 68.408 13.6448 68.4277 13.8299V17.1227H67.3169L67.3169 11.4941Z" fill="white"/>
<path d="M73.8672 9.29688H74.978V17.1228H73.8672V9.29688Z" fill="white"/>
<path d="M76.5222 14.3063C76.4869 13.9364 76.5292 13.5632 76.6465 13.2106C76.7639 12.858 76.9536 12.5338 77.2035 12.2588C77.4535 11.9838 77.7582 11.7641 78.098 11.6138C78.4378 11.4634 78.8053 11.3857 79.177 11.3857C79.5486 11.3857 79.9161 11.4634 80.2559 11.6138C80.5957 11.7641 80.9004 11.9838 81.1504 12.2588C81.4003 12.5338 81.59 12.858 81.7074 13.2106C81.8247 13.5632 81.867 13.9364 81.8317 14.3063C81.8677 14.6766 81.8258 15.0503 81.7088 15.4035C81.5918 15.7566 81.4022 16.0814 81.1521 16.3569C80.9021 16.6324 80.5972 16.8526 80.2571 17.0032C79.9169 17.1539 79.549 17.2317 79.177 17.2317C78.8049 17.2317 78.437 17.1539 78.0968 17.0032C77.7566 16.8526 77.4518 16.6324 77.2017 16.3569C76.9517 16.0814 76.7621 15.7566 76.6451 15.4035C76.5281 15.0503 76.4862 14.6766 76.5222 14.3063ZM80.6885 14.3063C80.6885 13.0862 80.1404 12.3727 79.1785 12.3727C78.2129 12.3727 77.6697 13.0862 77.6697 14.3063C77.6697 15.5362 78.2129 16.2442 79.1785 16.2442C80.1404 16.2442 80.6885 15.5313 80.6885 14.3063H80.6885Z" fill="white"/>
<path d="M83.0011 15.5312C83.0011 14.518 83.7555 13.9339 85.0946 13.8509L86.6193 13.763V13.2772C86.6193 12.6827 86.2262 12.347 85.4669 12.347C84.8468 12.347 84.4171 12.5747 84.2938 12.9726H83.2184C83.3319 12.0059 84.2413 11.3857 85.5182 11.3857C86.9293 11.3857 87.7252 12.0882 87.7252 13.2772V17.123H86.6559V16.332H86.568C86.3896 16.6158 86.1391 16.8471 85.8421 17.0023C85.545 17.1576 85.2121 17.2312 84.8773 17.2158C84.641 17.2403 84.4022 17.2151 84.1763 17.1418C83.9503 17.0684 83.7422 16.9485 83.5655 16.7898C83.3887 16.6311 83.2472 16.4371 83.1499 16.2203C83.0527 16.0035 83.002 15.7688 83.0011 15.5312ZM86.6193 15.0503V14.5797L85.2448 14.6676C84.4696 14.7195 84.118 14.9831 84.118 15.4793C84.118 15.9859 84.5575 16.2807 85.1618 16.2807C85.3388 16.2986 85.5177 16.2808 85.6877 16.2282C85.8577 16.1755 86.0154 16.0893 86.1514 15.9745C86.2874 15.8597 86.3989 15.7187 86.4792 15.5599C86.5596 15.4011 86.6072 15.2278 86.6193 15.0503Z" fill="white"/>
<path d="M89.1852 14.306C89.1852 12.5275 90.0995 11.4008 91.5216 11.4008C91.8734 11.3846 92.2225 11.4688 92.5282 11.6437C92.8338 11.8185 93.0834 12.0768 93.2477 12.3883H93.3307V9.29688H94.4415V17.1228H93.3771V16.2335H93.2892C93.1122 16.5429 92.8539 16.7979 92.5424 16.971C92.2308 17.1441 91.8778 17.2287 91.5216 17.2155C90.0897 17.2156 89.1852 16.0889 89.1852 14.306ZM90.3327 14.306C90.3327 15.4999 90.8954 16.2183 91.8366 16.2183C92.7729 16.2183 93.3515 15.4895 93.3515 14.3109C93.3515 13.1378 92.7668 12.3987 91.8366 12.3987C90.9015 12.3987 90.3326 13.1219 90.3326 14.306H90.3327Z" fill="white"/>
<path d="M99.0375 14.3062C99.0021 13.9363 99.0444 13.5631 99.1617 13.2105C99.279 12.8579 99.4687 12.5338 99.7186 12.2588C99.9686 11.9838 100.273 11.7641 100.613 11.6137C100.953 11.4634 101.32 11.3857 101.692 11.3857C102.063 11.3857 102.431 11.4634 102.771 11.6137C103.111 11.7641 103.415 11.9838 103.665 12.2588C103.915 12.5338 104.105 12.8579 104.222 13.2105C104.339 13.5631 104.382 13.9363 104.346 14.3062C104.382 14.6765 104.341 15.0502 104.224 15.4034C104.107 15.7565 103.917 16.0813 103.667 16.3568C103.417 16.6323 103.112 16.8525 102.772 17.0032C102.432 17.1538 102.064 17.2317 101.692 17.2317C101.32 17.2317 100.952 17.1538 100.612 17.0032C100.272 16.8525 99.9668 16.6323 99.7168 16.3568C99.4668 16.0813 99.2772 15.7565 99.1602 15.4034C99.0432 15.0502 99.0014 14.6765 99.0375 14.3062ZM103.204 14.3062C103.204 13.0861 102.656 12.3726 101.694 12.3726C100.728 12.3726 100.185 13.0861 100.185 14.3062C100.185 15.5361 100.728 16.2441 101.694 16.2441C102.656 16.2441 103.204 15.5312 103.204 14.3062Z" fill="white"/>
<path d="M105.837 11.4941H106.906V12.3882H106.989C107.13 12.0671 107.367 11.7979 107.669 11.6181C107.97 11.4384 108.319 11.357 108.669 11.3854C108.943 11.3648 109.218 11.4061 109.473 11.5062C109.729 11.6064 109.959 11.7627 110.146 11.9638C110.333 12.1649 110.473 12.4054 110.554 12.6677C110.636 12.93 110.657 13.2072 110.617 13.4789V17.1227H109.506V13.7579C109.506 12.8533 109.113 12.4035 108.292 12.4035C108.106 12.3948 107.92 12.4265 107.747 12.4963C107.575 12.5661 107.419 12.6723 107.292 12.8078C107.164 12.9433 107.067 13.1048 107.008 13.2812C106.948 13.4576 106.928 13.6448 106.948 13.8299V17.1227H105.837V11.4941Z" fill="white"/>
<path d="M116.894 10.0928V11.5198H118.113V12.4554H116.894V15.3497C116.894 15.9393 117.137 16.1975 117.69 16.1975C117.831 16.197 117.973 16.1885 118.113 16.1719V17.0971C117.914 17.1328 117.712 17.1518 117.509 17.1539C116.274 17.1539 115.782 16.7193 115.782 15.6341V12.4554H114.888V11.5197H115.782V10.0928H116.894Z" fill="white"/>
<path d="M119.631 9.29688H120.732V12.3987H120.82C120.967 12.0745 121.211 11.8038 121.519 11.6234C121.826 11.4429 122.181 11.3616 122.536 11.3904C122.808 11.3756 123.081 11.421 123.334 11.5236C123.586 11.6261 123.814 11.7832 123.999 11.9837C124.184 12.1841 124.323 12.4229 124.405 12.6831C124.487 12.9432 124.511 13.2183 124.474 13.4888V17.1228H123.362V13.7628C123.362 12.8638 122.944 12.4084 122.159 12.4084C121.968 12.3928 121.776 12.419 121.596 12.4853C121.416 12.5516 121.253 12.6564 121.118 12.7924C120.983 12.9283 120.88 13.0921 120.815 13.2722C120.75 13.4524 120.725 13.6446 120.742 13.8354V17.1228H119.631L119.631 9.29688Z" fill="white"/>
<path d="M130.952 15.6033C130.801 16.1178 130.474 16.5627 130.028 16.8604C129.582 17.1581 129.046 17.2896 128.513 17.2318C128.142 17.2415 127.773 17.1705 127.433 17.0236C127.092 16.8767 126.787 16.6574 126.54 16.381C126.293 16.1046 126.108 15.7776 126 15.4229C125.892 15.0681 125.862 14.694 125.912 14.3265C125.863 13.9579 125.893 13.583 126.002 13.2271C126.11 12.8713 126.293 12.5428 126.539 12.264C126.785 11.9852 127.088 11.7625 127.428 11.6109C127.768 11.4594 128.136 11.3827 128.508 11.3858C130.074 11.3858 131.019 12.4558 131.019 14.2233V14.6109H127.044V14.6732C127.027 14.8797 127.053 15.0877 127.12 15.2836C127.188 15.4795 127.296 15.6592 127.437 15.811C127.578 15.9628 127.749 16.0835 127.94 16.1652C128.13 16.2469 128.336 16.288 128.543 16.2857C128.809 16.3176 129.078 16.2697 129.316 16.1482C129.555 16.0267 129.752 15.837 129.882 15.6033L130.952 15.6033ZM127.044 13.7894H129.887C129.901 13.6005 129.875 13.4107 129.812 13.2323C129.748 13.0539 129.648 12.8908 129.517 12.7535C129.387 12.6162 129.229 12.5077 129.054 12.435C128.879 12.3623 128.691 12.3269 128.502 12.3313C128.309 12.3289 128.119 12.3649 127.941 12.4374C127.763 12.5098 127.601 12.6171 127.465 12.753C127.33 12.8889 127.222 13.0506 127.15 13.2286C127.078 13.4066 127.042 13.5973 127.044 13.7894H127.044Z" fill="white"/>
</svg>
