<svg width="150" height="50" viewBox="0 0 150 50" fill="none" xmlns="http://www.w3.org/2000/svg">
<path d="M0 10C0 4.47715 4.47715 0 10 0H140C145.523 0 150 4.47715 150 10V40C150 45.5228 145.523 50 140 50H10C4.47715 50 0 45.5228 0 40V10Z" fill="black"/>
<path d="M80.1479 17.7899C79.021 17.7899 78.0711 17.3941 77.3198 16.6148C76.5747 15.8573 76.1588 14.813 76.1774 13.7469C76.1774 12.6092 76.5623 11.6459 77.3198 10.8822C78.068 10.1029 79.0179 9.70703 80.1448 9.70703C81.2593 9.70703 82.2092 10.1029 82.9729 10.8822C83.7304 11.6709 84.1153 12.6341 84.1153 13.7469C84.1029 14.8878 83.718 15.851 82.9729 16.6116C82.2248 17.3972 81.2748 17.7899 80.1479 17.7899ZM46.6173 17.7899C45.5152 17.7899 44.5591 17.4003 43.7768 16.6303C43.0007 15.8635 42.6064 14.8941 42.6064 13.75C42.6064 12.606 43.0007 11.6366 43.7768 10.8698C44.5436 10.0998 45.4997 9.71015 46.6173 9.71015C47.1637 9.71015 47.6945 9.81925 48.2036 10.0406C48.7035 10.2557 49.1101 10.5487 49.4113 10.9072L49.4858 10.9976L48.6445 11.8267L48.5575 11.7239C48.0826 11.1565 47.4462 10.8791 46.6049 10.8791C45.8536 10.8791 45.1986 11.1472 44.6584 11.6771C44.1152 12.2101 43.8389 12.9084 43.8389 13.7532C43.8389 14.5979 44.1152 15.2962 44.6584 15.8292C45.1986 16.3592 45.8536 16.6272 46.6049 16.6272C47.4058 16.6272 48.0795 16.3592 48.6041 15.8292C48.9146 15.5175 49.107 15.0811 49.1753 14.5294H46.4776V13.3635H50.3333L50.3488 13.4695C50.3767 13.6659 50.4047 13.8685 50.4047 14.0555C50.4047 15.131 50.0818 16.0007 49.4423 16.6428C48.7159 17.4034 47.7659 17.7899 46.6173 17.7899ZM91.1996 17.6247H90.0106L86.3691 11.7737L86.4002 12.8274V17.6216H85.2112V9.87536H86.5678L86.6051 9.93459L90.0292 15.4458L89.9982 14.3953V9.87536H91.1996V17.6247ZM71.2135 17.6247H70.0089V11.0412H67.9197V9.87536H73.2996V11.0412H71.2103V17.6247H71.2135ZM66.9387 17.6247H65.7373V9.87536H66.9387V17.6247ZM60.1866 17.6247H58.9852V11.0412H56.896V9.87536H62.2759V11.0412H60.1866V17.6247ZM56.1354 17.6123H51.5285V9.87536H56.1354V11.0412H52.733V13.1671H55.8032V14.3205H52.733V16.4464H56.1354V17.6123ZM78.2015 15.8136C78.7385 16.3529 79.3904 16.6241 80.1479 16.6241C80.9271 16.6241 81.5635 16.3592 82.0944 15.8136C82.6221 15.2837 82.8891 14.5886 82.8891 13.75C82.8891 12.9115 82.6221 12.2133 82.0975 11.6865C81.5604 11.1472 80.9054 10.876 80.151 10.876C79.3718 10.876 78.7354 11.1409 78.2077 11.6865C77.6799 12.2164 77.4129 12.9115 77.4129 13.75C77.4129 14.5886 77.6768 15.2868 78.2015 15.8136Z" fill="white"/>
<path fill-rule="evenodd" clip-rule="evenodd" d="M73.2418 28.0453C70.5653 28.0453 68.3957 30.1446 68.3957 33.0402C68.3957 35.9095 70.5794 38.0351 73.2418 38.0351C75.9183 38.0351 78.0878 35.9212 78.0878 33.0402C78.0878 30.1446 75.9183 28.0453 73.2418 28.0453ZM73.2418 36.0558C71.7775 36.0558 70.5171 34.8027 70.5171 33.0285C70.5171 31.2279 71.7803 30.0011 73.2418 30.0011C74.7061 30.0011 75.9664 31.2279 75.9664 33.0285C75.9693 34.8144 74.7061 36.0558 73.2418 36.0558ZM62.6688 28.0453C59.9923 28.0453 57.8227 30.1446 57.8227 33.0402C57.8227 35.9095 60.0064 38.0351 62.6688 38.0351C65.3453 38.0351 67.5149 35.9212 67.5149 33.0402C67.5149 30.1446 65.3425 28.0453 62.6688 28.0453ZM62.6688 36.0558C61.2045 36.0558 59.9441 34.8027 59.9441 33.0285C59.9441 31.2279 61.2073 30.0011 62.6688 30.0011C64.1331 30.0011 65.3935 31.2279 65.3935 33.0285C65.3935 34.8144 64.1331 36.0558 62.6688 36.0558ZM50.0877 29.5707V31.6846H54.9961C54.846 32.8704 54.4665 33.7458 53.8858 34.346C53.1664 35.0897 52.0562 35.8977 50.0991 35.8977C47.0827 35.8977 44.7234 33.3798 44.7234 30.2617C44.7234 27.1435 47.0827 24.6256 50.0991 24.6256C51.7276 24.6256 52.9144 25.2902 53.7952 26.1393L55.2453 24.6402C54.0218 23.4281 52.3932 22.5 50.1104 22.5C45.9724 22.5 42.5 25.9841 42.5 30.25C42.5 34.5275 45.9696 37.9999 50.1104 37.9999C52.3451 37.9999 54.0218 37.2445 55.3473 35.8216C56.6983 34.425 57.126 32.4546 57.126 30.8648C57.126 30.37 57.0892 29.925 57.0127 29.5473H50.0849C50.0877 29.5444 50.0877 29.5707 50.0877 29.5707ZM101.548 31.2161C101.143 30.0948 99.9192 28.0336 97.4098 28.0336C94.923 28.0336 92.8554 30.0567 92.8554 33.0285C92.8554 35.8333 94.9004 38.0233 97.6505 38.0233C99.8597 38.0233 101.146 36.6268 101.675 35.807L100.035 34.671C99.4915 35.5054 98.7353 36.0529 97.6618 36.0529C96.5771 36.0529 95.818 35.5435 95.3139 34.5392L101.774 31.7724C101.774 31.7754 101.548 31.2161 101.548 31.2161ZM94.9598 32.885C94.9089 30.9556 96.41 29.9747 97.4834 29.9747C98.3303 29.9747 99.0355 30.4051 99.2763 31.0317L94.9598 32.885ZM89.7116 37.7247H91.833V23.0504H89.7116V37.7247ZM86.2279 29.155H86.1514C85.6727 28.5665 84.7636 28.0336 83.6023 28.0336C81.192 28.0336 78.9715 30.2265 78.9715 33.0431C78.9715 35.848 81.1807 38.0146 83.6023 38.0146C84.7494 38.0146 85.6727 37.4788 86.1514 36.8786H86.2279V37.5959C86.2279 39.5019 85.2422 40.5296 83.6533 40.5296C82.3533 40.5296 81.5461 39.5634 81.2175 38.7553L79.3737 39.5517C79.9033 40.8692 81.3167 42.5 83.6505 42.5C86.1372 42.5 88.2445 40.9863 88.2445 37.2943V28.3322H86.2392V29.155C86.242 29.155 86.2279 29.155 86.2279 29.155ZM83.7921 36.0558C82.3278 36.0558 81.1042 34.791 81.1042 33.0431C81.1042 31.2806 82.3278 30.004 83.7921 30.004C85.2422 30.004 86.3666 31.2952 86.3666 33.0431C86.3808 34.791 85.2451 36.0558 83.7921 36.0558ZM111.481 23.0504H106.408V37.7247H108.529V32.1677H111.483C113.831 32.1677 116.14 30.4081 116.14 27.6149C116.14 24.8218 113.84 23.0504 111.481 23.0504ZM111.543 30.1182H108.527V25.0823H111.543C113.132 25.0823 114.03 26.4379 114.03 27.6003C114.03 28.7509 113.121 30.1182 111.543 30.1182ZM124.642 28.019C123.102 28.019 121.513 28.7246 120.856 30.2617L122.736 31.0698C123.141 30.2617 123.883 29.9865 124.668 29.9865C125.767 29.9865 126.877 30.6657 126.903 31.8778V32.033C126.523 31.8105 125.69 31.4709 124.693 31.4709C122.663 31.4709 120.603 32.6186 120.603 34.7705C120.603 36.741 122.269 38.0058 124.124 38.0058C125.549 38.0058 126.333 37.3412 126.823 36.5711H126.9V37.7071H128.945V32.0857C128.945 29.4682 127.064 28.019 124.642 28.019ZM124.376 36.0558C123.682 36.0558 122.711 35.7045 122.711 34.8027C122.711 33.6667 123.923 33.2363 124.957 33.2363C125.891 33.2363 126.333 33.4442 126.888 33.7312C126.735 35.0487 125.659 36.0441 124.376 36.0558ZM136.405 28.3322L133.969 34.6973H133.893L131.369 28.3322H129.086L132.873 37.2299L130.715 42.175H132.924L138.75 28.3322H136.405ZM117.31 37.7247H119.431V23.0504H117.31V37.7247Z" fill="white"/>
<path fill-rule="evenodd" clip-rule="evenodd" d="M12.4745 12.3942C12.1737 12.7094 12 13.1909 12 13.8211V36.1748C12 36.805 12.1737 37.2865 12.4849 37.589L12.5653 37.6571L25.4473 25.1328V24.853L12.5549 12.3262L12.4745 12.3942Z" fill="url(#paint0_linear)"/>
<path fill-rule="evenodd" clip-rule="evenodd" d="M29.7334 29.3199L25.4367 25.1426V24.8501L29.7334 20.6729L29.8267 20.7283L34.909 23.5367C36.3637 24.3333 36.3637 25.6493 34.909 26.456L29.8267 29.2644L29.7334 29.3199Z" fill="url(#paint1_linear)"/>
<path fill-rule="evenodd" clip-rule="evenodd" d="M29.8268 29.2641L25.4368 24.9961L12.4745 37.5985C12.949 38.0927 13.745 38.1481 14.6344 37.6666L29.8268 29.2641Z" fill="url(#paint2_linear)"/>
<path fill-rule="evenodd" clip-rule="evenodd" d="M29.8268 20.7282L14.6344 12.3383C13.745 11.8442 12.9464 11.9123 12.4745 12.4064L25.4368 24.9962L29.8268 20.7282Z" fill="url(#paint3_linear)"/>
<path opacity="0.2" fill-rule="evenodd" clip-rule="evenodd" d="M29.7335 29.1738L14.6447 37.5082C13.802 37.9796 13.05 37.9469 12.5652 37.5183L12.4848 37.5964L12.5652 37.6645C13.05 38.0905 13.802 38.1258 14.6447 37.6544L29.8372 29.2646L29.7335 29.1738Z" fill="black"/>
<path opacity="0.12" fill-rule="evenodd" clip-rule="evenodd" d="M34.9091 26.3095L29.7205 29.1734L29.8138 29.2641L34.8961 26.4557C35.6247 26.0524 35.9826 25.523 35.9826 24.9961C35.9385 25.4801 35.5677 25.9389 34.9091 26.3095Z" fill="black"/>
<path opacity="0.25" fill-rule="evenodd" clip-rule="evenodd" d="M14.6345 12.4831L34.9091 23.6813C35.5677 24.0418 35.9385 24.5132 35.9956 24.9948C35.9956 24.4679 35.6377 23.9385 34.9091 23.5351L14.6345 12.3368C13.1798 11.5276 12 12.2032 12 13.8192V13.9654C12 12.3469 13.1798 11.6839 14.6345 12.4831Z" fill="white"/>
<defs>
<linearGradient id="paint0_linear" x1="24.2918" y1="13.5799" x2="3.73599" y2="19.2135" gradientUnits="userSpaceOnUse">
<stop stop-color="#00A0FF"/>
<stop offset="0.00657" stop-color="#00A1FF"/>
<stop offset="0.2601" stop-color="#00BEFF"/>
<stop offset="0.5122" stop-color="#00D2FF"/>
<stop offset="0.7604" stop-color="#00DFFF"/>
<stop offset="1" stop-color="#00E3FF"/>
</linearGradient>
<linearGradient id="paint1_linear" x1="36.806" y1="24.9964" x2="11.6462" y2="24.9964" gradientUnits="userSpaceOnUse">
<stop stop-color="#FFE000"/>
<stop offset="0.4087" stop-color="#FFBD00"/>
<stop offset="0.7754" stop-color="#FFA500"/>
<stop offset="1" stop-color="#FF9C00"/>
</linearGradient>
<linearGradient id="paint2_linear" x1="27.4397" y1="27.3185" x2="11.5545" y2="54.8183" gradientUnits="userSpaceOnUse">
<stop stop-color="#FF3A44"/>
<stop offset="1" stop-color="#C31162"/>
</linearGradient>
<linearGradient id="paint3_linear" x1="9.21039" y1="4.95859" x2="16.2973" y2="17.2401" gradientUnits="userSpaceOnUse">
<stop stop-color="#32A071"/>
<stop offset="0.0685" stop-color="#2DA771"/>
<stop offset="0.4762" stop-color="#15CF74"/>
<stop offset="0.8009" stop-color="#06E775"/>
<stop offset="1" stop-color="#00F076"/>
</linearGradient>
</defs>
</svg>
