<svg width="15" height="15" viewBox="0 0 15 15" fill="none" xmlns="http://www.w3.org/2000/svg">
<path fill-rule="evenodd" clip-rule="evenodd" d="M7.49999 0C5.46316 0 5.20767 0.00863403 4.40784 0.0451333C3.60953 0.0815734 3.06437 0.20834 2.58731 0.393755C2.08688 0.582077 1.63355 0.877294 1.25893 1.25882C0.877321 1.63342 0.582024 2.08676 0.393634 2.58721C0.208368 3.0643 0.0816032 3.60947 0.0453123 4.40779C0.00866412 5.20762 3.05176e-05 5.46312 3.05176e-05 7.50002C3.05176e-05 9.53691 0.00866412 9.79241 0.0453123 10.5922C0.0817521 11.3906 0.208517 11.9357 0.393931 12.4128C0.582253 12.9132 0.877467 13.3666 1.25899 13.7412C1.63361 14.1227 2.08694 14.4179 2.58737 14.6062C3.06446 14.7917 3.60962 14.9184 4.4079 14.9549C5.20785 14.9914 5.46326 15 7.5001 15C9.53695 15 9.79248 14.9914 10.5923 14.9549C11.3906 14.9184 11.9358 14.7917 12.4128 14.6062C13.4203 14.2166 14.2166 13.4202 14.6063 12.4128C14.7917 11.9357 14.9185 11.3905 14.9549 10.5922C14.9914 9.79229 15 9.53688 15 7.50002C15 5.46315 14.9914 5.20762 14.9549 4.40779C14.9185 3.60947 14.7917 3.0643 14.6063 2.58724C14.418 2.08681 14.1227 1.63347 13.7412 1.25885C13.3666 0.877248 12.9132 0.581969 12.4127 0.393606C11.9357 0.20834 11.3905 0.0815734 10.5922 0.0452821C9.79236 0.00863368 9.53686 0 7.49999 0ZM3.33336 7.5C3.33336 5.19881 5.19878 3.33333 7.49989 3.33333C9.80101 3.33333 11.6664 5.19881 11.6664 7.5C11.6664 9.80119 9.80101 11.6667 7.49989 11.6667C5.19878 11.6667 3.33336 9.80119 3.33336 7.5ZM4.79168 7.5003C4.79167 8.99607 6.00439 10.2086 7.50038 10.2087C8.99638 10.2087 10.2091 8.9961 10.2091 7.50033C10.2091 6.00456 8.99641 4.792 7.50042 4.79199C6.00443 4.79199 4.79169 6.00454 4.79168 7.5003ZM11.7419 4.23031C12.2721 4.23031 12.702 3.80125 12.702 3.27197C12.702 2.7427 12.2721 2.31364 11.7419 2.31364C11.2117 2.31364 10.7819 2.7427 10.7819 3.27197C10.7819 3.80125 11.2117 4.23031 11.7419 4.23031Z" fill="white"/>
</svg>
