<svg width="15" height="13" viewBox="0 0 15 13" fill="none" xmlns="http://www.w3.org/2000/svg">
<path d="M12.922 3.95304C12.922 7.84468 10.1059 12.3337 4.95873 12.3337C3.43714 12.3345 1.94735 11.8752 0.666656 11.0106C0.888589 11.039 1.11194 11.0534 1.3355 11.0537C2.59616 11.0558 3.8208 10.6113 4.81218 9.79177C4.22822 9.77942 3.21212 9.31672 2.48373 8.62325C1.75535 7.92978 0.99999 6.72893 0.919099 5.83325H2.33332C1.99999 5.33542 1.54145 4.53822 1.33332 3.59352C1.12519 2.64882 1.30933 1.66404 1.66666 1.01568C2.33332 1.85162 3.33965 2.71531 4.33332 3.24514C5.32699 3.77497 6.27324 4.2224 7.38577 4.28115C7.247 3.64957 7.3098 2.98747 7.56445 2.39721C7.8191 1.80696 8.25142 1.32142 8.79457 1.01568C9.33772 0.709938 9.96145 0.601014 10.5693 0.70575C11.1772 0.810486 11.7354 1.12305 12.1575 1.59511C12.7597 1.63921 13.2829 1.20558 14 0.991066C14 2.08718 13.7792 2.91317 12.914 3.57164C12.9193 3.69784 12.922 3.82684 12.922 3.95304Z" fill="white" stroke="white" stroke-width="0.833333" stroke-linecap="round" stroke-linejoin="round"/>
</svg>
