<svg width="89" height="18" viewBox="0 0 89 18" fill="none" xmlns="http://www.w3.org/2000/svg">
<path d="M10.6503 13.4995H5.57282L12.1054 4.34644C12.384 3.94848 12.5079 3.45869 12.5079 2.96889C12.5079 1.56073 11.3314 0.397461 9.90724 0.397461H2.19817C1.05264 0.397461 0.12384 1.31583 0.12384 2.44848C0.12384 3.58113 1.05264 4.4995 2.19817 4.4995H6.93506L0.402481 13.6832C0.12384 14.0811 0 14.5709 0 15.0607C0 16.4689 1.17648 17.6322 2.60065 17.6322H10.6503C11.7958 17.6322 12.7246 16.7138 12.7246 15.5811C12.7246 14.4179 11.7958 13.4995 10.6503 13.4995Z" fill="white"/>
<path d="M24.6442 13.6223H19.1643V10.8672H23.9012C24.9848 10.8672 25.8827 9.97943 25.8827 8.908C25.8827 7.83658 24.9848 6.94882 23.9012 6.94882H19.1643V4.34678H24.5204C25.604 4.34678 26.5019 3.45902 26.5019 2.3876V2.32637C26.5019 1.25494 25.604 0.367188 24.5204 0.367188H16.8423C15.7587 0.367188 14.8609 1.25494 14.8609 2.32637V15.6427C14.8609 16.7141 15.7587 17.6019 16.8423 17.6019H24.6752C25.7588 17.6019 26.6567 16.7141 26.6567 15.6427V15.5815C26.6567 14.51 25.7588 13.6223 24.6442 13.6223Z" fill="white"/>
<path d="M36.3784 0.367188H31.1461C29.9386 0.367188 28.9789 1.31617 28.9789 2.51004V15.4896C28.9789 16.6835 29.9386 17.6325 31.1461 17.6325C32.3535 17.6325 33.3133 16.6835 33.3133 15.4896V12.3978H36.4093C39.9388 12.3978 42.6013 9.82637 42.6013 6.3978C42.5704 2.96923 39.9078 0.367188 36.3784 0.367188ZM36.3784 8.35699H33.2823V4.46923H36.3784C37.462 4.46923 38.2669 5.29576 38.2669 6.3978C38.236 7.49984 37.431 8.35699 36.3784 8.35699Z" fill="white"/>
<path d="M54.335 13.6223H48.8551V10.8672H53.561C54.6446 10.8672 55.5424 9.97943 55.5424 8.908C55.5424 7.83658 54.6446 6.94882 53.561 6.94882H48.8241V4.34678H54.1802C55.2638 4.34678 56.1616 3.45902 56.1616 2.3876V2.32637C56.1616 1.25494 55.2638 0.367188 54.1802 0.367188H46.4711C45.3875 0.367188 44.4897 1.25494 44.4897 2.32637V15.6427C44.4897 16.7141 45.3875 17.6019 46.4711 17.6019H54.304C55.3876 17.6019 56.2855 16.7141 56.2855 15.6427V15.5815C56.3165 14.51 55.4186 13.6223 54.335 13.6223Z" fill="white"/>
<path d="M69.103 0.367188H59.5982C58.4527 0.367188 57.5239 1.28555 57.5239 2.41821C57.5239 3.55086 58.4527 4.46923 59.5982 4.46923H62.1989V15.5202C62.1989 16.6529 63.1277 17.5713 64.2732 17.5713H64.428C65.5735 17.5713 66.5023 16.6529 66.5023 15.5202V4.49984H69.103C70.2485 4.49984 71.1773 3.58147 71.1773 2.44882C71.1773 1.31617 70.2485 0.367188 69.103 0.367188Z" fill="white"/>
<path d="M80.0319 0C75.2021 0 71.4249 3.94898 71.4249 9C71.4249 14.051 75.2021 18 80.0319 18C84.8616 18 88.6388 14.051 88.6388 9C88.6388 3.94898 84.8616 0 80.0319 0ZM81.9514 14.2959C81.7037 14.3878 81.456 14.4184 81.1774 14.4184C79.5055 14.4184 77.6789 12.6735 76.7501 10.1633C76.2238 8.72449 76.069 7.28571 76.3166 6.09184C76.5643 4.86735 77.1835 4.04082 78.0504 3.73469C78.2981 3.64286 78.5458 3.61224 78.8244 3.61224C80.4963 3.61224 82.3229 5.35714 83.2517 7.86735C84.3663 10.8061 83.778 13.6224 81.9514 14.2959Z" fill="white"/>
</svg>
